<svg id="グループ_198" data-name="グループ 198" xmlns="http://www.w3.org/2000/svg" xmlns:xlink="http://www.w3.org/1999/xlink" width="89.228" height="41.558" viewBox="0 0 89.228 41.558">
  <defs>
    <clipPath id="clip-path">
      <rect id="長方形_111" data-name="長方形 111" width="89.228" height="41.558" fill="#fff"/>
    </clipPath>
  </defs>
  <g id="グループ_197" data-name="グループ 197" clip-path="url(#clip-path)">
    <path id="パス_115" data-name="パス 115" d="M134.111,18.629l6.258-7.6a.629.629,0,0,0,.143-.4V7.271a.627.627,0,0,0-.627-.627H115.74a.627.627,0,0,0-.627.627V9.945a.627.627,0,0,0,.627.627h19.153a.314.314,0,0,1,.242.513L119.591,29.894a.627.627,0,0,1-.483.228H115.74a.627.627,0,0,0-.627.627v2.705a.627.627,0,0,0,.627.627h4.931a1.237,1.237,0,0,0,.951-.445l9.028-10.843a.627.627,0,0,1,.993.038l7.7,10.842a.967.967,0,0,0,.789.407h3.362a.557.557,0,0,0,.453-.88l-9.858-13.808a.627.627,0,0,1,.026-.763" transform="translate(-83.081 -4.795)" fill="#fff"/>
    <path id="パス_116" data-name="パス 116" d="M10.009,32.493H12.2a.631.631,0,0,0,.631-.631v-2.21a.631.631,0,0,0-.631-.631h-9.3a.631.631,0,0,0-.631.631v2.21a.631.631,0,0,0,.631.631H5.176a.631.631,0,0,1,.631.631v.528a.631.631,0,0,1-.631.631H1.5a.631.631,0,0,0-.631.631v2.306a.631.631,0,0,0,.631.631H5.176a.631.631,0,0,1,.631.631v7.355a.631.631,0,0,1-.59.63l-3.757.244a.631.631,0,0,0-.59.63v2.21a.631.631,0,0,0,.676.63l12.087-.848a.631.631,0,0,0,.587-.63V46.5a.631.631,0,0,0-.676-.63l-3.489.249a.631.631,0,0,1-.676-.63v-7a.631.631,0,0,1,.631-.631h3.579a.631.631,0,0,0,.631-.631V34.915a.631.631,0,0,0-.631-.631H10.009a.631.631,0,0,1-.631-.631v-.528a.631.631,0,0,1,.631-.631" transform="translate(-0.628 -20.945)" fill="#fff"/>
    <path id="パス_117" data-name="パス 117" d="M5.9.269,1.115,3.994a.631.631,0,0,0-.244.5V7.555a.538.538,0,0,0,.868.425L7.144,3.789a.631.631,0,0,1,.772,0l5.436,4.194a.538.538,0,0,0,.867-.426V4.492a.631.631,0,0,0-.244-.5L9.188.269A1.281,1.281,0,0,0,8.4,0H6.69A1.282,1.282,0,0,0,5.9.269" transform="translate(-0.629 0.001)" fill="#fff"/>
    <path id="パス_118" data-name="パス 118" d="M66.106,23.7a.631.631,0,0,1-.009-.553l2.2-4.713a.473.473,0,0,0-.429-.673H65.606a.631.631,0,0,0-.57.36l-.58,1.218a.315.315,0,0,1-.566.007l-1.154-2.272a.316.316,0,0,1,.282-.459H67.1a.631.631,0,0,0,.631-.631V.631A.631.631,0,0,0,67.1,0H54.048a.631.631,0,0,0-.631.631V28.6a.631.631,0,0,0,.684.629l7.343-.612a.631.631,0,0,0,.579-.629v-2.52a.631.631,0,0,0-.69-.629l-3.656.341a.631.631,0,0,1-.69-.629v-7.3a.631.631,0,0,1,.631-.631h.93a.631.631,0,0,1,.567.353l3.479,7.075.487.99h0l1.916,3.9a.632.632,0,0,0,.567.353h2.5a.539.539,0,0,0,.481-.783ZM56.986,4.136a.631.631,0,0,1,.631-.631h5.942a.631.631,0,0,1,.631.631V5.974a.631.631,0,0,1-.631.631H57.617a.631.631,0,0,1-.631-.631Zm.631,8.979a.631.631,0,0,1-.631-.631v-1.87a.631.631,0,0,1,.631-.631h5.942a.631.631,0,0,1,.631.631v1.87a.631.631,0,0,1-.631.631Z" transform="translate(-38.553)" fill="#fff"/>
    <path id="パス_119" data-name="パス 119" d="M36.005,64.98l-.44,4.863a.631.631,0,0,0,.629.688h1.7a.632.632,0,0,0,.629-.575l.44-4.863a.631.631,0,0,0-.629-.688h-1.7a.631.631,0,0,0-.629.574" transform="translate(-25.667 -46.484)" fill="#fff"/>
    <path id="パス_120" data-name="パス 120" d="M4.891,64.98l.44,4.863a.631.631,0,0,1-.629.688h-1.7a.632.632,0,0,1-.629-.575l-.44-4.863a.631.631,0,0,1,.629-.688h1.7a.631.631,0,0,1,.629.574" transform="translate(-1.396 -46.484)" fill="#fff"/>
    <path id="パス_121" data-name="パス 121" d="M5.252,127.018a3.038,3.038,0,0,1-2.267.934A2.988,2.988,0,0,1,.8,127.064c-.82-.82-.8-1.834-.8-3.235s-.023-2.415.8-3.236a2.95,2.95,0,0,1,2.187-.889,3.075,3.075,0,0,1,2.484,1.037L4.4,121.812a1.8,1.8,0,0,0-1.412-.7,1.317,1.317,0,0,0-1.014.433c-.307.342-.387.718-.387,2.278s.08,1.948.387,2.29a1.31,1.31,0,0,0,1.014.421,1.387,1.387,0,0,0,1.082-.456,1.631,1.631,0,0,0,.353-1.1v-.285H2.985v-1.321H6v1.162a3.242,3.242,0,0,1-.752,2.484" transform="translate(0 -86.394)" fill="#fff"/>
    <rect id="長方形_110" data-name="長方形 110" width="1.584" height="8.111" transform="translate(7.532 33.378)" fill="#fff"/>
    <path id="パス_122" data-name="パス 122" d="M44.351,128.062l-3.213-4.979v4.979H39.555v-8.111h1.413l3.213,4.967v-4.967h1.584v8.111Z" transform="translate(-28.548 -86.572)" fill="#fff"/>
    <path id="パス_123" data-name="パス 123" d="M66.908,128.062v-1.276l3.463-5.423H67.056v-1.412H72.24V121.2l-3.475,5.445H72.24v1.413Z" transform="translate(-48.29 -86.572)" fill="#fff"/>
    <path id="パス_124" data-name="パス 124" d="M94.235,128.061l-.478-1.435H90.875l-.49,1.435H88.733l2.95-8.111h1.242l2.962,8.111Zm-1.891-5.719-1.025,2.951h2.017Z" transform="translate(-64.041 -86.572)" fill="#fff"/>
    <path id="パス_125" data-name="パス 125" d="M128.711,127.952a3.81,3.81,0,0,1-2.962-1.071l1.025-1.025a2.656,2.656,0,0,0,1.96.683c.934,0,1.435-.353,1.435-1a.9.9,0,0,0-.25-.684,1.207,1.207,0,0,0-.718-.285l-.98-.137a2.752,2.752,0,0,1-1.572-.672,2.143,2.143,0,0,1-.581-1.6c0-1.447,1.071-2.461,2.825-2.461a3.475,3.475,0,0,1,2.62.946l-1,.991a2.258,2.258,0,0,0-1.663-.558c-.843,0-1.253.467-1.253,1.025a.783.783,0,0,0,.239.581,1.4,1.4,0,0,0,.752.319l.957.137a2.683,2.683,0,0,1,1.549.627,2.272,2.272,0,0,1,.626,1.72c0,1.572-1.31,2.461-3.008,2.461" transform="translate(-90.757 -86.394)" fill="#fff"/>
    <path id="パス_126" data-name="パス 126" d="M156.466,128.062l-2.085-3.691-1.048,1.253v2.438H151.75v-8.111h1.583v3.532l2.859-3.532h1.925l-2.688,3.224,2.882,4.887Z" transform="translate(-109.523 -86.572)" fill="#fff"/>
    <path id="パス_127" data-name="パス 127" d="M180.534,124.735v3.327h-1.572v-3.327l-2.438-4.785h1.72l1.515,3.27,1.492-3.27h1.72Z" transform="translate(-127.403 -86.572)" fill="#fff"/>
    <path id="パス_128" data-name="パス 128" d="M217.36,128.062h-1.321l-1.493-4.921-1.492,4.921h-1.322l-2.165-8.111h1.652l1.253,5.115,1.481-5.115h1.185l1.481,5.115,1.264-5.115h1.652Z" transform="translate(-151.251 -86.572)" fill="#fff"/>
    <path id="パス_129" data-name="パス 129" d="M249.3,128.061l-.478-1.435h-2.882l-.49,1.435H243.8l2.95-8.111h1.242l2.962,8.111Zm-1.891-5.719-1.025,2.951H248.4Z" transform="translate(-175.958 -86.572)" fill="#fff"/>
    <path id="パス_130" data-name="パス 130" d="M273.526,128.062v-8.111h1.584v6.7h3.68v1.413Z" transform="translate(-197.413 -86.572)" fill="#fff"/>
    <path id="パス_131" data-name="パス 131" d="M301.788,128.062l-2.085-3.691-1.048,1.253v2.438h-1.583v-8.111h1.583v3.532l2.859-3.532h1.925l-2.688,3.224,2.882,4.887Z" transform="translate(-214.406 -86.572)" fill="#fff"/>
    <path id="パス_132" data-name="パス 132" d="M224.18,2.414V.63A.631.631,0,0,0,223.548,0h-2.724a.631.631,0,0,0-.631.631V2.414a.631.631,0,0,1-.631.631H216.71a.631.631,0,0,0-.631.631V6.4a.631.631,0,0,0,.631.631h2.851a.631.631,0,0,1,.631.631V28.621a.631.631,0,0,0,.631.631h2.724a.631.631,0,0,0,.631-.631V7.663a.631.631,0,0,1,.631-.631h15.551a.631.631,0,0,1,.631.631v17a.631.631,0,0,1-.631.631H236.43a.631.631,0,0,0-.631.631v2.723a.631.631,0,0,0,.631.631h7.951a.631.631,0,0,0,.631-.631V3.677a.631.631,0,0,0-.631-.631h-19.57a.631.631,0,0,1-.631-.631" transform="translate(-155.951 0.001)" fill="#fff"/>
  </g>
</svg>
