<svg height="79.782" viewBox="0 0 171.297 79.782" width="171.297" xmlns="http://www.w3.org/2000/svg" xmlns:xlink="http://www.w3.org/1999/xlink"><clipPath id="a"><path d="m0 0h171.297v79.782h-171.297z"/></clipPath><g clip-path="url(#a)" fill="#0092e5"><path d="m151.585 29.653 12.015-14.583a1.207 1.207 0 0 0 .275-.766v-6.456a1.2 1.2 0 0 0 -1.2-1.2h-46.358a1.2 1.2 0 0 0 -1.2 1.2v5.133a1.2 1.2 0 0 0 1.2 1.2h36.77a.6.6 0 0 1 .464.986l-29.841 36.112a1.2 1.2 0 0 1 -.928.437h-6.465a1.2 1.2 0 0 0 -1.2 1.2v5.193a1.2 1.2 0 0 0 1.2 1.2h9.466a2.374 2.374 0 0 0 1.825-.855l17.331-20.816a1.2 1.2 0 0 1 1.907.074l14.773 20.815a1.857 1.857 0 0 0 1.515.782h6.455a1.069 1.069 0 0 0 .87-1.69l-18.925-26.501a1.2 1.2 0 0 1 .051-1.465" transform="translate(-53.618 -3.095)"/><path d="m18.414 35.688h4.2a1.212 1.212 0 0 0 1.212-1.212v-4.244a1.212 1.212 0 0 0 -1.212-1.212h-17.86a1.212 1.212 0 0 0 -1.212 1.212v4.243a1.212 1.212 0 0 0 1.212 1.212h4.383a1.212 1.212 0 0 1 1.213 1.213v1.014a1.212 1.212 0 0 1 -1.212 1.212h-7.056a1.212 1.212 0 0 0 -1.212 1.212v4.428a1.212 1.212 0 0 0 1.212 1.212h7.055a1.212 1.212 0 0 1 1.213 1.212v14.12a1.212 1.212 0 0 1 -1.134 1.209l-7.216.468a1.212 1.212 0 0 0 -1.13 1.213v4.24a1.212 1.212 0 0 0 1.3 1.209l23.2-1.628a1.212 1.212 0 0 0 1.13-1.209v-4.243a1.212 1.212 0 0 0 -1.3-1.209l-6.7.478a1.212 1.212 0 0 1 -1.3-1.209v-13.439a1.212 1.212 0 0 1 1.212-1.212h6.872a1.212 1.212 0 0 0 1.216-1.213v-4.427a1.212 1.212 0 0 0 -1.212-1.212h-6.874a1.212 1.212 0 0 1 -1.214-1.212v-1.014a1.212 1.212 0 0 1 1.212-1.212" transform="translate(-.405 -13.517)"/><path d="m10.532.518-9.193 7.15a1.212 1.212 0 0 0 -.468.957v5.88a1.033 1.033 0 0 0 1.667.817l10.376-8.048a1.211 1.211 0 0 1 1.483 0l10.436 8.052a1.033 1.033 0 0 0 1.665-.818v-5.883a1.212 1.212 0 0 0 -.468-.957l-9.193-7.15a2.459 2.459 0 0 0 -1.511-.518h-3.283a2.462 2.462 0 0 0 -1.511.519" transform="translate(-.406)"/><path d="m77.777 45.506a1.211 1.211 0 0 1 -.018-1.061l4.223-9.045a.909.909 0 0 0 -.823-1.293h-4.341a1.212 1.212 0 0 0 -1.094.691l-1.114 2.336a.606.606 0 0 1 -1.087.014l-2.216-4.361a.606.606 0 0 1 .541-.88h7.832a1.212 1.212 0 0 0 1.212-1.212v-29.483a1.212 1.212 0 0 0 -1.212-1.212h-25.051a1.212 1.212 0 0 0 -1.212 1.212v53.693a1.212 1.212 0 0 0 1.313 1.208l14.1-1.175a1.212 1.212 0 0 0 1.112-1.208v-4.837a1.212 1.212 0 0 0 -1.325-1.207l-7.02.654a1.212 1.212 0 0 1 -1.325-1.207v-14.014a1.212 1.212 0 0 1 1.212-1.212h1.785a1.212 1.212 0 0 1 1.088.677l6.678 13.582.934 1.9 3.678 7.481a1.212 1.212 0 0 0 1.088.677h4.8a1.035 1.035 0 0 0 .923-1.5zm-17.509-37.565a1.212 1.212 0 0 1 1.212-1.213h11.407a1.212 1.212 0 0 1 1.213 1.213v3.528a1.212 1.212 0 0 1 -1.212 1.212h-11.408a1.212 1.212 0 0 1 -1.212-1.212zm1.212 17.237a1.212 1.212 0 0 1 -1.212-1.212v-3.59a1.212 1.212 0 0 1 1.212-1.212h11.407a1.212 1.212 0 0 1 1.213 1.211v3.59a1.212 1.212 0 0 1 -1.212 1.212z" transform="translate(-24.881)"/><path d="m36.412 65.509-.845 9.336a1.212 1.212 0 0 0 1.207 1.321h3.257a1.213 1.213 0 0 0 1.207-1.1l.844-9.336a1.212 1.212 0 0 0 -1.207-1.321h-3.255a1.212 1.212 0 0 0 -1.207 1.1" transform="translate(-16.565 -29.999)"/><path d="m7.611 65.509.845 9.336a1.212 1.212 0 0 1 -1.207 1.321h-3.258a1.213 1.213 0 0 1 -1.207-1.1l-.844-9.339a1.212 1.212 0 0 1 1.207-1.321h3.253a1.212 1.212 0 0 1 1.207 1.1" transform="translate(-.901 -29.999)"/><path d="m10.083 133.745a5.832 5.832 0 0 1 -4.352 1.793 5.737 5.737 0 0 1 -4.2-1.706c-1.574-1.574-1.531-3.521-1.531-6.21s-.043-4.637 1.532-6.212a5.664 5.664 0 0 1 4.2-1.706 5.9 5.9 0 0 1 4.768 1.99l-2.058 2.056a3.448 3.448 0 0 0 -2.712-1.334 2.528 2.528 0 0 0 -1.947.832c-.59.656-.744 1.378-.744 4.374s.153 3.739.744 4.4a2.515 2.515 0 0 0 1.947.809 2.664 2.664 0 0 0 2.078-.875 3.131 3.131 0 0 0 .678-2.121v-.547h-2.756v-2.537h5.8v2.231c0 2.253-.35 3.631-1.443 4.768" transform="translate(0 -55.757)"/><path d="m0 0h3.04v15.572h-3.04z" transform="translate(14.459 64.079)"/><path d="m48.763 135.522-6.163-9.557v9.558h-3.04v-15.572h2.712l6.167 9.535v-9.535h3.04v15.572z" transform="translate(-18.424 -55.871)"/><path d="m66.908 135.522v-2.449l6.649-10.411h-6.365v-2.712h9.951v2.406l-6.67 10.454h6.671v2.712z" transform="translate(-31.165 -55.871)"/><path d="m99.3 135.522-.918-2.755h-5.537l-.941 2.755h-3.171l5.667-15.572h2.384l5.686 15.572zm-3.631-10.979-1.969 5.664h3.871z" transform="translate(-41.331 -55.871)"/><path d="m131.435 135.539a7.314 7.314 0 0 1 -5.686-2.056l1.968-1.969a5.1 5.1 0 0 0 3.762 1.312c1.793 0 2.755-.678 2.755-1.924a1.734 1.734 0 0 0 -.481-1.313 2.317 2.317 0 0 0 -1.378-.546l-1.882-.262a5.283 5.283 0 0 1 -3.018-1.291 4.115 4.115 0 0 1 -1.115-3.062c0-2.777 2.056-4.724 5.424-4.724a6.672 6.672 0 0 1 5.03 1.815l-1.924 1.9a4.335 4.335 0 0 0 -3.193-1.072c-1.619 0-2.406.9-2.406 1.969a1.5 1.5 0 0 0 .459 1.115 2.68 2.68 0 0 0 1.443.612l1.837.262a5.15 5.15 0 0 1 2.974 1.2 4.362 4.362 0 0 1 1.2 3.3c0 3.018-2.515 4.724-5.774 4.724" transform="translate(-58.572 -55.757)"/><path d="m160.8 135.522-4-7.086-2.012 2.406v4.68h-3.04v-15.571h3.04v6.78l5.49-6.78h3.7l-5.161 6.189 5.533 9.382z" transform="translate(-70.683 -55.871)"/><path d="m184.222 129.136v6.387h-3.022v-6.387l-4.68-9.186h3.3l2.909 6.277 2.865-6.277h3.3z" transform="translate(-82.222 -55.871)"/><path d="m224.527 135.522h-2.537l-2.866-9.448-2.865 9.448h-2.537l-4.156-15.572h3.172l2.406 9.82 2.843-9.82h2.274l2.844 9.82 2.427-9.82h3.168z" transform="translate(-97.614 -55.871)"/><path d="m254.364 135.522-.918-2.755h-5.533l-.941 2.755h-3.172l5.664-15.572h2.384l5.686 15.572zm-3.63-10.979-1.969 5.665h3.871z" transform="translate(-113.559 -55.871)"/><path d="m273.526 135.522v-15.571h3.04v12.86h7.064v2.712z" transform="translate(-127.405 -55.871)"/><path d="m306.126 135.522-4-7.086-2.012 2.406v4.68h-3.04v-15.571h3.04v6.78l5.49-6.78h3.7l-5.161 6.189 5.533 9.382z" transform="translate(-138.372 -55.871)"/><path d="m231.63 4.635v-3.424a1.212 1.212 0 0 0 -1.212-1.211h-5.23a1.212 1.212 0 0 0 -1.212 1.212v3.423a1.212 1.212 0 0 1 -1.212 1.212h-5.473a1.212 1.212 0 0 0 -1.212 1.212v5.228a1.212 1.212 0 0 0 1.212 1.212h5.473a1.212 1.212 0 0 1 1.212 1.212v40.237a1.212 1.212 0 0 0 1.212 1.212h5.23a1.212 1.212 0 0 0 1.212-1.212v-40.236a1.212 1.212 0 0 1 1.212-1.212h29.858a1.212 1.212 0 0 1 1.212 1.212v32.646a1.212 1.212 0 0 1 -1.212 1.212h-7.548a1.212 1.212 0 0 0 -1.212 1.212v5.228a1.212 1.212 0 0 0 1.212 1.212h15.264a1.212 1.212 0 0 0 1.212-1.212v-47.951a1.212 1.212 0 0 0 -1.212-1.212h-37.573a1.212 1.212 0 0 1 -1.212-1.212" transform="translate(-100.647)"/></g></svg>